<svg width="45" height="45" viewBox="0 0 45 45" fill="none" xmlns="http://www.w3.org/2000/svg">
<path fill-rule="evenodd" clip-rule="evenodd" d="M22.5 45C34.9256 45 45 34.9256 45 22.5C45 10.0744 34.9256 0 22.5 0C10.0744 0 0 10.0744 0 22.5C0 34.9256 10.0744 45 22.5 45ZM22.5 39.375C31.8206 39.375 39.375 31.8206 39.375 22.5C39.375 13.1794 31.8206 5.625 22.5 5.625C13.1794 5.625 5.625 13.1794 5.625 22.5C5.625 31.8206 13.1794 39.375 22.5 39.375ZM19.6875 30.9375C20.8125 30.9375 21.8756 30.4931 22.6688 29.6916L32.9287 18.9112C34.0256 17.8003 34.0256 16.0059 32.9287 14.895C31.8319 13.7841 30.0487 13.7841 28.9519 14.895L19.6875 24.6713L16.0509 20.52C14.9541 19.4091 13.1738 19.4091 12.0741 20.52C10.9772 21.6309 10.9772 23.4253 12.0741 24.5362L16.7034 29.6916C17.4994 30.4931 18.5569 30.9375 19.6875 30.9375Z" fill="#4D9AAB"/>
</svg>
