<svg width="30" height="27" viewBox="0 0 30 27" fill="none" xmlns="http://www.w3.org/2000/svg">
<path d="M20.8718 17.8977L22.532 16.2375C22.7914 15.9781 23.2428 16.1597 23.2428 16.5332V24.0768C23.2428 25.4516 22.1273 26.5671 20.7525 26.5671H2.4903C1.11545 26.5671 0 25.4516 0 24.0768V5.81459C0 4.43973 1.11545 3.32429 2.4903 3.32429H16.6798C17.0482 3.32429 17.2349 3.77047 16.9755 4.03506L15.3153 5.69526C15.2375 5.77308 15.1337 5.81459 15.0196 5.81459H2.4903V24.0768H20.7525V18.1883C20.7525 18.0793 20.794 17.9755 20.8718 17.8977ZM28.9964 7.42809L15.3724 21.0521L10.6823 21.5709C9.32305 21.7214 8.1661 20.5748 8.31656 19.2051L8.83537 14.5151L22.4594 0.89106C23.6474 -0.29702 25.5671 -0.29702 26.7499 0.89106L28.9912 3.13233C30.1793 4.32041 30.1793 6.2452 28.9964 7.42809ZM23.8705 9.03122L20.8562 6.01692L11.2167 15.6616L10.838 19.0495L14.2258 18.6707L23.8705 9.03122ZM27.2324 4.89629L24.9912 2.65502C24.7785 2.44231 24.4309 2.44231 24.2233 2.65502L22.6202 4.25815L25.6345 7.27245L27.2376 5.66932C27.4452 5.45142 27.4452 5.109 27.2324 4.89629Z" fill="white"/>
</svg>
