<svg width="41" height="42" viewBox="0 0 41 42" fill="none" xmlns="http://www.w3.org/2000/svg">
<path fill-rule="evenodd" clip-rule="evenodd" d="M40.1802 21.4658C40.1802 20.0122 40.0498 18.6145 39.8075 17.2726H20.5002V25.2024H31.5329C31.0577 27.7649 29.6134 29.936 27.4423 31.3897V36.5333H34.0675C37.9438 32.9644 40.1802 27.709 40.1802 21.4658Z" fill="#4285F4"/>
<path fill-rule="evenodd" clip-rule="evenodd" d="M20.5001 41.4997C26.0351 41.4997 30.6755 39.664 34.0674 36.5331L27.4421 31.3895C25.6065 32.6195 23.2583 33.3463 20.5001 33.3463C15.1608 33.3463 10.6415 29.7402 9.02945 24.8947H2.1806V30.2061C5.55378 36.9058 12.4865 41.4997 20.5001 41.4997Z" fill="#34A853"/>
<path fill-rule="evenodd" clip-rule="evenodd" d="M9.0293 24.8952C8.6193 23.6652 8.38635 22.3513 8.38635 21.0002C8.38635 19.649 8.6193 18.3352 9.0293 17.1052V11.7938H2.18045C0.792044 14.5613 0 17.6922 0 21.0002C0 24.3081 0.792044 27.439 2.18045 30.2065L9.0293 24.8952Z" fill="#FBBC05"/>
<path fill-rule="evenodd" clip-rule="evenodd" d="M20.5001 8.65346C23.5099 8.65346 26.2121 9.68777 28.3367 11.7191L34.2164 5.83937C30.6662 2.53142 26.0258 0.500061 20.5001 0.500061C12.4865 0.500061 5.55378 5.09392 2.1806 11.7937L9.02945 17.105C10.6415 12.2596 15.1608 8.65346 20.5001 8.65346Z" fill="#EA4335"/>
</svg>
