<svg width="53" height="53" viewBox="0 0 53 53" fill="none" xmlns="http://www.w3.org/2000/svg">
<circle cx="26.12" cy="26.12" r="26.12" fill="#E35970"/>
<path fill-rule="evenodd" clip-rule="evenodd" d="M32.6557 34.1625C32.6557 34.1495 19.5988 34.1625 19.5988 34.1625C19.6103 34.1625 19.5988 26.002 19.5988 26.002C19.5988 25.1011 18.8676 24.3699 17.9667 24.3699C17.0658 24.3699 16.3346 25.1011 16.3346 26.002V34.1625C16.3346 35.966 17.7954 37.4268 19.5988 37.4268H32.6557C34.4543 37.4219 35.9101 35.9628 35.9101 34.1625V26.002C35.9101 25.1011 35.1757 24.3699 34.278 24.3699C33.3755 24.3699 32.6459 25.1011 32.6459 26.002L32.6541 34.1625H32.6557ZM36.5271 23.9945C36.8568 24.2769 37.2893 24.4107 37.7185 24.3666C38.1526 24.3209 38.5476 24.1006 38.812 23.7562C39.38 23.0299 39.2804 21.9854 38.5835 21.3782L27.2485 11.7472C26.5794 11.1759 25.5968 11.1759 24.9309 11.7472L13.658 21.3309C12.961 21.938 12.8582 22.9826 13.4295 23.7105C13.6906 24.0533 14.0872 24.2752 14.5197 24.3193C14.9506 24.365 15.3815 24.2312 15.7111 23.9488L26.1077 15.1517L36.514 24.001L36.5254 23.9929L36.5271 23.9945ZM26.1566 29.2499C27.952 29.245 29.4045 27.7859 29.4013 25.9889C29.4013 24.1936 27.9405 22.7378 26.1452 22.741C24.3499 22.741 22.8941 24.1985 22.8941 25.9938C22.899 27.794 24.3597 29.2483 26.1583 29.2483L26.1566 29.2499Z" fill="white"/>
</svg>
