<svg width="20" height="18" viewBox="0 0 20 18" fill="none" xmlns="http://www.w3.org/2000/svg">
<path d="M14.3731 6.87411C15.0645 6.87411 15.623 7.43263 15.623 8.12395C15.623 8.81526 15.0645 9.37378 14.3731 9.37378C13.6818 9.37378 13.1233 8.81526 13.1233 8.12395C13.1233 7.43263 13.6818 6.87411 14.3731 6.87411ZM9.9987 6.87411C10.69 6.87411 11.2485 7.43263 11.2485 8.12395C11.2485 8.81526 10.69 9.37378 9.9987 9.37378C9.30739 9.37378 8.74887 8.81526 8.74887 8.12395C8.74887 7.43263 9.30739 6.87411 9.9987 6.87411ZM5.62427 6.87411C6.31559 6.87411 6.87411 7.43263 6.87411 8.12395C6.87411 8.81526 6.31559 9.37378 5.62427 9.37378C4.93295 9.37378 4.37443 8.81526 4.37443 8.12395C4.37443 7.43263 4.93295 6.87411 5.62427 6.87411ZM9.9987 0C15.5214 0 19.9974 3.63625 19.9974 8.12395C19.9974 9.98308 19.2202 11.686 17.9313 13.0569C18.5132 14.5958 19.724 15.9003 19.7435 15.9159C20.0013 16.1893 20.0716 16.5877 19.9232 16.9314C19.7748 17.2751 19.435 17.4977 19.06 17.4977C16.658 17.4977 14.7637 16.494 13.6271 15.6894C12.4984 16.0448 11.2798 16.2479 9.9987 16.2479C4.47598 16.2479 -5.96046e-07 12.6116 -5.96046e-07 8.12395C-5.96046e-07 3.63625 4.47598 0 9.9987 0ZM9.9987 14.3731C11.0415 14.3731 12.0727 14.213 13.0608 13.9005L13.9474 13.6193L14.709 14.1583C15.2676 14.5528 16.0331 14.9942 16.9548 15.291C16.6697 14.8184 16.3924 14.2872 16.1776 13.7209L15.7636 12.6234L16.5682 11.7719C17.2751 11.0181 18.1227 9.77217 18.1227 8.12395C18.1227 4.67908 14.4786 1.87476 9.9987 1.87476C5.51881 1.87476 1.87476 4.67908 1.87476 8.12395C1.87476 11.5688 5.51881 14.3731 9.9987 14.3731Z" fill="#CB5C6C"/>
<rect width="13.3333" height="4.66667" transform="matrix(-1 0 0 1 16.6666 5.33337)" fill="white"/>
</svg>
