<svg width="53" height="53" viewBox="0 0 53 53" fill="none" xmlns="http://www.w3.org/2000/svg">
<circle cx="26.1194" cy="26.1194" r="26.1194" fill="#CB5C5C"/>
<path fill-rule="evenodd" clip-rule="evenodd" d="M35.4478 20.6467C35.4478 15.4975 31.2686 11.3184 26.1194 11.3184C20.9701 11.3184 16.791 15.4975 16.791 20.6467C16.791 23.4825 18.056 26.0236 20.056 27.7363C15.8955 29.9191 13.0597 34.2773 13.0597 39.3034C13.0597 40.3333 13.8955 41.1691 14.9254 41.1691C15.9552 41.1691 16.791 40.3333 16.791 39.3034C16.791 34.1542 20.9701 29.9751 26.1194 29.9751C31.2686 29.9751 35.4478 34.1542 35.4478 39.3034C35.4478 40.3333 36.2836 41.1691 37.3134 41.1691C38.3433 41.1691 39.1791 40.3333 39.1791 39.3034C39.1791 34.2792 36.3433 29.9191 32.1828 27.7363C34.1847 26.0199 35.4478 23.4825 35.4478 20.6467ZM26.1194 26.2437C23.028 26.2437 20.5224 23.7381 20.5224 20.6467C20.5224 17.5553 23.028 15.0497 26.1194 15.0497C29.2108 15.0497 31.7164 17.5553 31.7164 20.6467C31.7164 23.7381 29.2108 26.2437 26.1194 26.2437Z" fill="white"/>
</svg>
