<svg width="45" height="45" viewBox="0 0 45 45" fill="none" xmlns="http://www.w3.org/2000/svg">
<path fill-rule="evenodd" clip-rule="evenodd" d="M22.5 45C10.0744 45 0 34.9256 0 22.5C0 10.0744 10.0744 0 22.5 0C34.9256 0 45 10.0744 45 22.5C45 34.9256 34.9256 45 22.5 45ZM22.5 5.625C13.1794 5.625 5.625 13.1794 5.625 22.5C5.625 31.8206 13.1794 39.375 22.5 39.375C31.8206 39.375 39.375 31.8206 39.375 22.5C39.375 13.1794 31.8206 5.625 22.5 5.625ZM30.4566 33.2663C29.7056 33.2663 28.9941 32.9709 28.4597 32.4422L22.5 26.4797L16.5375 32.4422C15.4406 33.5391 13.6547 33.5391 12.5578 32.4422C11.4609 31.3453 11.4609 29.565 12.5578 28.4653L18.5175 22.5L12.555 16.5375C11.8406 15.8231 11.565 14.7881 11.8237 13.8178C12.0853 12.8475 12.8447 12.0881 13.815 11.8294C14.7853 11.5678 15.8203 11.8463 16.5319 12.5606L22.5 18.5203L28.4625 12.5578C29.1769 11.8434 30.2119 11.565 31.1822 11.8266C32.1525 12.0853 32.9119 12.8447 33.1734 13.815C33.4322 14.7853 33.1566 15.8203 32.4422 16.5319L26.4825 22.5L32.445 28.4625C32.9794 28.9969 33.2719 29.7084 33.2719 30.4594C33.2719 31.2019 32.9738 31.9163 32.445 32.445C31.9163 32.9709 31.2019 33.2663 30.4566 33.2663Z" fill="#CB5C6C"/>
</svg>
