<svg width="40" height="30" viewBox="0 0 40 30" fill="none" xmlns="http://www.w3.org/2000/svg">
<path d="M36.25 0H3.75C1.67891 0 0 1.67891 0 3.75V26.25C0 28.3211 1.67891 30 3.75 30H36.25C38.3211 30 40 28.3211 40 26.25V3.75C40 1.67891 38.3211 0 36.25 0ZM36.25 3.75V6.93789C34.4983 8.36437 31.7056 10.5825 25.7354 15.2574C24.4197 16.2923 21.8134 18.7787 20 18.7497C18.1869 18.779 15.5798 16.292 14.2646 15.2574C8.29531 10.5832 5.50195 8.36461 3.75 6.93789V3.75H36.25ZM3.75 26.25V11.7498C5.54016 13.1757 8.07883 15.1766 11.9483 18.2066C13.6559 19.5507 16.6462 22.518 20 22.4999C23.3373 22.518 26.2898 19.5938 28.051 18.2072C31.9204 15.1773 34.4598 13.1759 36.25 11.7499V26.25H3.75Z" fill="#E35970"/>
</svg>
