<svg width="53" height="53" viewBox="0 0 53 53" fill="none" xmlns="http://www.w3.org/2000/svg">
<circle cx="26.1194" cy="26.1194" r="26.1194" fill="#CB5C5C"/>
<path fill-rule="evenodd" clip-rule="evenodd" d="M35.9027 37.6554H16.336C14.5322 37.6554 13.0679 36.1944 13.0597 34.3905V18.0659C13.0597 17.1974 13.4058 16.3681 14.0196 15.7527C14.635 15.1405 15.4676 14.7977 16.3377 14.8009H35.9027C37.7066 14.8009 39.1709 16.262 39.1791 18.0659V34.3905C39.1791 35.2589 38.833 36.0882 38.2192 36.7037C37.6038 37.3159 36.7712 37.6587 35.9011 37.6554H35.9027ZM35.9142 34.3905V20.4656L27.8416 28.7748C27.3846 29.2368 26.7593 29.4931 26.1112 29.4931C25.4582 29.4931 24.8346 29.2368 24.3759 28.7748L16.3246 20.4884V34.3905H35.9142ZM33.6777 18.0659H18.5448L26.1096 25.869L33.6777 18.0659Z" fill="white"/>
</svg>
