<svg width="38" height="46" viewBox="0 0 38 46" fill="none" xmlns="http://www.w3.org/2000/svg">
<path d="M28.27 0C28.4777 2.6706 27.6201 5.31573 25.8795 7.37366C25.046 8.39465 23.9881 9.21605 22.7856 9.77603C21.583 10.336 20.2671 10.6199 18.937 10.6065C18.8521 9.3222 19.0251 8.03406 19.446 6.81568C19.867 5.5973 20.5276 4.47257 21.3901 3.50578C23.1543 1.52681 25.6107 0.275078 28.27 0Z" fill="black"/>
<path d="M33.1209 19.4372C32.2371 20.9708 31.7616 22.6995 31.7386 24.4627C31.7407 26.446 32.3356 28.3848 33.4491 30.0373C34.5625 31.6898 36.1453 32.983 38 33.7556C37.2708 36.0886 36.1716 38.2934 34.7432 40.2883C32.8248 43.1145 30.8134 45.8756 27.621 45.9266C26.1027 45.9611 25.0778 45.5311 24.0099 45.0831C22.8959 44.6157 21.7351 44.1287 19.9187 44.1287C17.9923 44.1287 16.7795 44.6314 15.6099 45.1162C14.5991 45.5352 13.6205 45.9408 12.2413 45.9971C9.20102 46.108 6.87752 42.9807 4.88943 40.181C0.91581 34.4635 -2.17832 24.0681 1.9698 16.9949C2.92742 15.3001 4.31447 13.8786 5.9958 12.8687C7.67713 11.8588 9.5954 11.2951 11.5637 11.2325C13.288 11.1976 14.9426 11.8521 16.3933 12.426C17.5027 12.8648 18.4928 13.2565 19.3035 13.2565C20.0163 13.2565 20.9788 12.8803 22.1004 12.4418C23.8674 11.7512 26.0294 10.9061 28.2325 11.1339C29.921 11.1859 31.5739 11.625 33.0599 12.4162C34.5459 13.2074 35.8242 14.3289 36.7931 15.6918C35.2679 16.6153 34.0046 17.9037 33.1209 19.4372Z" fill="black"/>
</svg>
