<svg xmlns="http://www.w3.org/2000/svg"  viewBox="0 0 64 64" width="64px" height="64px" baseProfile="basic"><ellipse cx="32" cy="61" opacity=".3" rx="19" ry="3"/><path fill="#4ccff1" d="M32.005,7.986c-13.253,0-23.997,9.549-23.997,21.33c0,5.454,2.322,10.758,6.11,14.53l-3.022,9.064	c-0.677,2.031,1.502,3.831,3.369,2.781l10.186-5.729c2.319,0.663,4.787,1.03,7.353,1.03c13.253,0,23.997-9.894,23.997-21.674	C56.001,17.536,45.258,7.986,32.005,7.986z"/><path fill="#fff" d="M32.005,12.986c2.605,0,4.72-1.999,4.954-4.543c-1.599-0.298-3.256-0.458-4.954-0.458	c-13.253,0-23.997,9.549-23.997,21.33c0,1.674,0.243,3.328,0.656,4.934c2.448-0.324,4.344-2.397,4.344-4.934	C13.008,20.311,21.531,12.986,32.005,12.986z" opacity=".3"/><path d="M32.004,50.991c13.253,0,23.997-9.894,23.997-21.674c0-1.699-0.23-3.35-0.652-4.934	c-2.45,0.323-4.348,2.396-4.348,4.934c0,9.039-8.7,16.675-18.997,16.674c-2.599,0-4.709,1.989-4.952,4.524	C28.651,50.817,30.303,50.991,32.004,50.991z" opacity=".15"/><path fill="#fff" d="M15.012,20.854c-0.322,0-0.646-0.103-0.919-0.315c-0.654-0.509-0.772-1.451-0.264-2.104	c0.792-1.02,1.702-1.979,2.705-2.852c0.999-0.868,2.095-1.655,3.259-2.34c1.167-0.688,2.419-1.28,3.722-1.761	c0.776-0.288,1.64,0.11,1.927,0.888c0.287,0.777-0.111,1.64-0.888,1.927c-1.135,0.419-2.225,0.935-3.239,1.531	c-1.006,0.592-1.952,1.271-2.812,2.019c-0.856,0.745-1.632,1.562-2.305,2.428C15.902,20.654,15.459,20.854,15.012,20.854z"/></svg>