<svg width="53" height="53" viewBox="0 0 53 53" fill="none" xmlns="http://www.w3.org/2000/svg">
<circle cx="26.12" cy="26.12" r="26.12" fill="#CB5C5C"/>
<path fill-rule="evenodd" clip-rule="evenodd" d="M37.3143 41.0458H31.7172C29.6556 41.0458 27.9858 39.376 27.9858 37.3143V31.7172C27.9858 29.6556 29.6556 27.9858 31.7172 27.9858H37.3143C39.376 27.9858 41.0458 29.6556 41.0458 31.7172V37.3143C41.0458 39.376 39.376 41.0458 37.3143 41.0458ZM37.3143 24.2543H31.7172C29.6556 24.2543 27.9858 22.5845 27.9858 20.5229V14.9258C27.9858 12.8642 29.6556 11.1943 31.7172 11.1943H37.3143C39.376 11.1943 41.0458 12.8642 41.0458 14.9258V20.5229C41.0458 22.5845 39.376 24.2543 37.3143 24.2543ZM20.5229 41.0458H14.9258C12.8642 41.0458 11.1943 39.376 11.1943 37.3143V31.7172C11.1943 29.6556 12.8642 27.9858 14.9258 27.9858H20.5229C22.5845 27.9858 24.2543 29.6556 24.2543 31.7172V37.3143C24.2543 39.376 22.5845 41.0458 20.5229 41.0458ZM20.5229 24.2543H14.9258C12.8642 24.2543 11.1943 22.5845 11.1943 20.5229V14.9258C11.1943 12.8642 12.8642 11.1943 14.9258 11.1943H20.5229C22.5845 11.1943 24.2543 12.8642 24.2543 14.9258V20.5229C24.2543 22.5845 22.5845 24.2543 20.5229 24.2543Z" fill="white"/>
</svg>
